HIERARCHY
ROOT newVegas:Hips
{
	OFFSET 0.000000 96.479958 0.000000
	CHANNELS 6 Xposition Yposition Zposition Xrotation Yrotation Zrotation
	JOINT newVegas:Pelvis
	{
		OFFSET 0.000000 0.000000 0.000000
		CHANNELS 3 Xrotation Yrotation Zrotation
		JOINT newVegas:LeftUpLeg
		{
			OFFSET 18.735201 -5.666702 -4.541200
			CHANNELS 3 Xrotation Yrotation Zrotation
			JOINT newVegas:LeftLeg
			{
				OFFSET -0.021200 -31.938179 0.493100
				CHANNELS 3 Xrotation Yrotation Zrotation
				JOINT newVegas:LeftFoot
				{
					OFFSET 0.021200 -31.938179 -4.336299
					CHANNELS 3 Xrotation Yrotation Zrotation
					JOINT newVegas:LeftToeBase
					{
						OFFSET 0.943001 -26.722000 15.023500
						CHANNELS 3 Xrotation Yrotation Zrotation
						End Site
						{
							OFFSET 0.000000 30.670183 0.000000
						}
					}
				}
				JOINT newVegas:Left_PantLeg
				{
					OFFSET 0.663870 -9.044666 -1.108900
					CHANNELS 3 Xrotation Yrotation Zrotation
					End Site
					{
						OFFSET 1.415995 20.635357 0.000000
					}
				}
			}
		}
		JOINT newVegas:RightUpLeg
		{
			OFFSET -18.735201 -5.666702 -4.541200
			CHANNELS 3 Xrotation Yrotation Zrotation
			JOINT newVegas:RightLeg
			{
				OFFSET 0.018946 -31.938133 0.493100
				CHANNELS 3 Xrotation Yrotation Zrotation
				JOINT newVegas:RightFoot
				{
					OFFSET -0.018946 -31.938126 -4.336299
					CHANNELS 3 Xrotation Yrotation Zrotation
					JOINT newVegas:RightToeBase
					{
						OFFSET -0.943001 -26.722004 15.023500
						CHANNELS 3 Xrotation Yrotation Zrotation
						End Site
						{
							OFFSET 0.000000 30.670187 0.000000
						}
					}
				}
				JOINT newVegas:Right_PantLeg
				{
					OFFSET -0.661674 -9.044716 -1.108900
					CHANNELS 3 Xrotation Yrotation Zrotation
					End Site
					{
						OFFSET -1.415958 20.635269 0.000000
					}
				}
			}
		}
	}
	JOINT newVegas:Spine
	{
		OFFSET 0.000000 10.199997 -0.299500
		CHANNELS 3 Xrotation Yrotation Zrotation
		JOINT newVegas:Spine1
		{
			OFFSET 0.000000 11.900002 -1.516600
			CHANNELS 3 Xrotation Yrotation Zrotation
			JOINT newVegas:Spine2
			{
				OFFSET 0.000000 13.600006 -2.842500
				CHANNELS 3 Xrotation Yrotation Zrotation
				JOINT newVegas:Neck
				{
					OFFSET 0.000000 9.624100 -2.890100
					CHANNELS 3 Xrotation Yrotation Zrotation
					JOINT newVegas:Head
					{
						OFFSET 0.000000 14.068802 -1.351900
						CHANNELS 3 Xrotation Yrotation Zrotation
						JOINT newVegas:Hair_Back
						{
							OFFSET 0.000000 3.231903 -17.524799
							CHANNELS 3 Xrotation Yrotation Zrotation
							End Site
							{
								OFFSET 0.000000 19.849884 0.000000
							}
						}
						JOINT newVegas:Hair_Front
						{
							OFFSET 0.000000 31.260406 4.573800
							CHANNELS 3 Xrotation Yrotation Zrotation
							JOINT newVegas:Hair_Front1
							{
								OFFSET 0.000000 2.284103 11.993300
								CHANNELS 3 Xrotation Yrotation Zrotation
								JOINT newVegas:Hair_Front2
								{
									OFFSET 0.000000 2.284103 11.993300
									CHANNELS 3 Xrotation Yrotation Zrotation
									End Site
									{
										OFFSET 0.000000 12.208862 0.000000
									}
								}
							}
						}
						JOINT newVegas:Jowel
						{
							OFFSET 0.000000 -7.458206 6.864100
							CHANNELS 3 Xrotation Yrotation Zrotation
							End Site
							{
								OFFSET 0.000000 19.849884 0.000000
							}
						}
					}
				}
				JOINT newVegas:LeftShoulder
				{
					OFFSET 15.263000 10.923401 -0.547700
					CHANNELS 3 Xrotation Yrotation Zrotation
					JOINT newVegas:LeftArm
					{
						OFFSET 25.438599 -2.830597 -13.032500
						CHANNELS 3 Xrotation Yrotation Zrotation
						JOINT newVegas:LeftForeArm
						{
							OFFSET 29.960503 0.000000 0.000000
							CHANNELS 3 Xrotation Yrotation Zrotation
							JOINT newVegas:LeftHand
							{
								OFFSET 27.849251 0.000000 0.000000
								CHANNELS 3 Xrotation Yrotation Zrotation
								JOINT newVegas:LeftHandThumb1
								{
									OFFSET 4.487587 -3.305161 6.305391
									CHANNELS 3 Xrotation Yrotation Zrotation
									JOINT newVegas:LeftHandThumb2
									{
										OFFSET 5.480453 -3.164139 3.164143
										CHANNELS 3 Xrotation Yrotation Zrotation
										JOINT newVegas:LeftHandThumb3
										{
											OFFSET 5.159721 -2.978973 2.978967
											CHANNELS 3 Xrotation Yrotation Zrotation
											End Site
											{
												OFFSET 2.494507 5.926697 1.738678
											}
										}
									}
								}
								JOINT newVegas:LeftHandIndex1
								{
									OFFSET 18.578728 -0.527832 5.208049
									CHANNELS 3 Xrotation Yrotation Zrotation
									JOINT newVegas:LeftHandIndex2
									{
										OFFSET 3.192009 0.000000 0.000000
										CHANNELS 3 Xrotation Yrotation Zrotation
										JOINT newVegas:LeftHandIndex3
										{
											OFFSET 3.835129 0.000000 0.000000
											CHANNELS 3 Xrotation Yrotation Zrotation
											End Site
											{
												OFFSET -0.034599 3.816971 0.371180
											}
										}
									}
								}
								JOINT newVegas:LeftHandMiddle1
								{
									OFFSET 18.476105 0.000000 0.000000
									CHANNELS 3 Xrotation Yrotation Zrotation
									JOINT newVegas:LeftHandMiddle2
									{
										OFFSET 3.324875 0.000000 0.000000
										CHANNELS 3 Xrotation Yrotation Zrotation
										JOINT newVegas:LeftHandMiddle3
										{
											OFFSET 4.596550 0.000000 0.000000
											CHANNELS 3 Xrotation Yrotation Zrotation
											End Site
											{
												OFFSET 0.057701 4.578827 0.399218
											}
										}
									}
								}
								JOINT newVegas:LeftHandRing1
								{
									OFFSET 17.732719 0.121887 -4.201567
									CHANNELS 3 Xrotation Yrotation Zrotation
									JOINT newVegas:LeftHandRing2
									{
										OFFSET 2.733170 0.000000 0.000000
										CHANNELS 3 Xrotation Yrotation Zrotation
										JOINT newVegas:LeftHandRing3
										{
											OFFSET 3.178268 0.000000 0.000000
											CHANNELS 3 Xrotation Yrotation Zrotation
											End Site
											{
												OFFSET 0.119102 3.170624 0.185394
											}
										}
									}
								}
								JOINT newVegas:LeftHandPinky1
								{
									OFFSET 15.989624 -0.606689 -7.535461
									CHANNELS 3 Xrotation Yrotation Zrotation
									JOINT newVegas:LeftHandPinky2
									{
										OFFSET 2.538986 0.000000 0.000000
										CHANNELS 3 Xrotation Yrotation Zrotation
										JOINT newVegas:LeftHandPinky3
										{
											OFFSET 2.593102 0.000000 0.000000
											CHANNELS 3 Xrotation Yrotation Zrotation
											End Site
											{
												OFFSET -0.150902 2.584198 0.152708
											}
										}
									}
								}
							}
							JOINT newVegas:Left_Sleeve
							{
								OFFSET 0.267448 -0.649796 0.577675
								CHANNELS 3 Xrotation Yrotation Zrotation
								End Site
								{
									OFFSET 0.000000 15.991241 0.000000
								}
							}
							JOINT newVegas:Left_CapeC
							{
								OFFSET 15.715958 -8.608795 -6.935905
								CHANNELS 3 Xrotation Yrotation Zrotation
								JOINT newVegas:Left_CapeC1
								{
									OFFSET 0.000000 -8.688499 0.000000
									CHANNELS 3 Xrotation Yrotation Zrotation
									End Site
									{
										OFFSET 0.000000 8.688499 0.000000
									}
								}
							}
						}
						JOINT newVegas:Left_CapeB
						{
							OFFSET 26.118385 -8.608795 -7.079235
							CHANNELS 3 Xrotation Yrotation Zrotation
							JOINT newVegas:Left_CapeB1
							{
								OFFSET 0.000000 -8.688499 0.000000
								CHANNELS 3 Xrotation Yrotation Zrotation
								End Site
								{
									OFFSET 0.000000 8.688499 0.000000
								}
							}
						}
						JOINT newVegas:Left_CapeA
						{
							OFFSET 5.115639 -8.608795 -10.395809
							CHANNELS 3 Xrotation Yrotation Zrotation
							JOINT newVegas:Left_CapeA1
							{
								OFFSET 0.000000 -8.688499 0.000000
								CHANNELS 3 Xrotation Yrotation Zrotation
								End Site
								{
									OFFSET 0.000000 8.688499 0.000000
								}
							}
						}
					}
				}
				JOINT newVegas:RightShoulder
				{
					OFFSET -15.263000 10.923401 -0.547700
					CHANNELS 3 Xrotation Yrotation Zrotation
					JOINT newVegas:RightArm
					{
						OFFSET -25.438599 -2.830597 -13.032500
						CHANNELS 3 Xrotation Yrotation Zrotation
						JOINT newVegas:RightForeArm
						{
							OFFSET -29.960503 0.000000 0.000000
							CHANNELS 3 Xrotation Yrotation Zrotation
							JOINT newVegas:RightHand
							{
								OFFSET -27.849251 0.000000 0.000000
								CHANNELS 3 Xrotation Yrotation Zrotation
								JOINT newVegas:RightHandThumb1
								{
									OFFSET -4.487587 -3.305161 6.305391
									CHANNELS 3 Xrotation Yrotation Zrotation
									JOINT newVegas:RightHandThumb2
									{
										OFFSET -5.480453 -3.164139 3.164143
										CHANNELS 3 Xrotation Yrotation Zrotation
										JOINT newVegas:RightHandThumb3
										{
											OFFSET -5.159721 -2.978973 2.978967
											CHANNELS 3 Xrotation Yrotation Zrotation
											End Site
											{
												OFFSET -2.494507 5.926697 1.738678
											}
										}
									}
								}
								JOINT newVegas:RightHandIndex1
								{
									OFFSET -18.578728 -0.527832 5.208049
									CHANNELS 3 Xrotation Yrotation Zrotation
									JOINT newVegas:RightHandIndex2
									{
										OFFSET -3.192009 0.000000 0.000000
										CHANNELS 3 Xrotation Yrotation Zrotation
										JOINT newVegas:RightHandIndex3
										{
											OFFSET -3.835129 0.000000 0.000000
											CHANNELS 3 Xrotation Yrotation Zrotation
											End Site
											{
												OFFSET 0.034599 3.816971 0.371180
											}
										}
									}
								}
								JOINT newVegas:RightHandMiddle1
								{
									OFFSET -18.476105 0.000000 0.000000
									CHANNELS 3 Xrotation Yrotation Zrotation
									JOINT newVegas:RightHandMiddle2
									{
										OFFSET -3.324875 0.000000 0.000000
										CHANNELS 3 Xrotation Yrotation Zrotation
										JOINT newVegas:RightHandMiddle3
										{
											OFFSET -4.596550 0.000000 0.000000
											CHANNELS 3 Xrotation Yrotation Zrotation
											End Site
											{
												OFFSET -0.057701 4.578827 0.399218
											}
										}
									}
								}
								JOINT newVegas:RightHandRing1
								{
									OFFSET -17.732719 0.121887 -4.201567
									CHANNELS 3 Xrotation Yrotation Zrotation
									JOINT newVegas:RightHandRing2
									{
										OFFSET -2.733170 0.000000 0.000000
										CHANNELS 3 Xrotation Yrotation Zrotation
										JOINT newVegas:RightHandRing3
										{
											OFFSET -3.178268 0.000000 0.000000
											CHANNELS 3 Xrotation Yrotation Zrotation
											End Site
											{
												OFFSET -0.119102 3.170624 0.185394
											}
										}
									}
								}
								JOINT newVegas:RightHandPinky1
								{
									OFFSET -15.989624 -0.606689 -7.535461
									CHANNELS 3 Xrotation Yrotation Zrotation
									JOINT newVegas:RightHandPinky2
									{
										OFFSET -2.538986 0.000000 0.000000
										CHANNELS 3 Xrotation Yrotation Zrotation
										JOINT newVegas:RightHandPinky3
										{
											OFFSET -2.593102 0.000000 0.000000
											CHANNELS 3 Xrotation Yrotation Zrotation
											End Site
											{
												OFFSET 0.150902 2.584198 0.152708
											}
										}
									}
								}
							}
							JOINT newVegas:Right_CapeC
							{
								OFFSET -15.715958 -8.608795 -6.935905
								CHANNELS 3 Xrotation Yrotation Zrotation
								JOINT newVegas:Right_CapeC1
								{
									OFFSET 0.000000 -8.688499 0.000000
									CHANNELS 3 Xrotation Yrotation Zrotation
									End Site
									{
										OFFSET 0.000000 8.688499 0.000000
									}
								}
							}
							JOINT newVegas:Right_Sleeve
							{
								OFFSET -0.267448 -0.649994 0.577675
								CHANNELS 3 Xrotation Yrotation Zrotation
								End Site
								{
									OFFSET 0.000000 15.991302 0.000000
								}
							}
						}
						JOINT newVegas:Right_CapeA
						{
							OFFSET -5.115540 -8.608795 -10.395824
							CHANNELS 3 Xrotation Yrotation Zrotation
							JOINT newVegas:Right_CapeA1
							{
								OFFSET 0.000000 -8.688499 0.000000
								CHANNELS 3 Xrotation Yrotation Zrotation
								End Site
								{
									OFFSET 0.000000 8.688499 0.000000
								}
							}
						}
						JOINT newVegas:Right_CapeB
						{
							OFFSET -26.118187 -8.608795 -7.079266
							CHANNELS 3 Xrotation Yrotation Zrotation
							JOINT newVegas:Right_CapeB1
							{
								OFFSET 0.000000 -8.688499 0.000000
								CHANNELS 3 Xrotation Yrotation Zrotation
								End Site
								{
									OFFSET 0.000000 8.688499 0.000000
								}
							}
						}
					}
				}
				JOINT newVegas:Left_Collar
				{
					OFFSET 18.625099 8.655502 8.828100
					CHANNELS 3 Xrotation Yrotation Zrotation
					JOINT newVegas:Left_Collar1
					{
						OFFSET 14.783401 10.540405 -1.259500
						CHANNELS 3 Xrotation Yrotation Zrotation
						End Site
						{
							OFFSET 0.000000 18.199875 0.000000
						}
					}
				}
				JOINT newVegas:Collar_Back
				{
					OFFSET 0.000000 15.630707 -20.132601
					CHANNELS 3 Xrotation Yrotation Zrotation
					End Site
					{
						OFFSET 0.000000 22.523010 0.000000
					}
				}
				JOINT newVegas:Left_Peck
				{
					OFFSET 17.239599 -5.132599 25.482599
					CHANNELS 3 Xrotation Yrotation Zrotation
					End Site
					{
						OFFSET 0.000000 22.523010 0.000000
					}
				}
				JOINT newVegas:Right_Peck
				{
					OFFSET -17.239599 -5.132202 25.482599
					CHANNELS 3 Xrotation Yrotation Zrotation
					End Site
					{
						OFFSET 0.000000 22.523010 0.000000
					}
				}
				JOINT newVegas:Right_Collar
				{
					OFFSET -18.625099 8.655792 8.828100
					CHANNELS 3 Xrotation Yrotation Zrotation
					JOINT newVegas:Right_Collar1
					{
						OFFSET -14.783401 10.539993 -1.259500
						CHANNELS 3 Xrotation Yrotation Zrotation
						End Site
						{
							OFFSET 0.000000 18.199631 0.000000
						}
					}
				}
			}
		}
		JOINT newVegas:Belly
		{
			OFFSET 0.000000 -6.540398 9.014299
			CHANNELS 3 Xrotation Yrotation Zrotation
			End Site
			{
				OFFSET 0.000000 11.566666 0.000000
			}
		}
	}
	JOINT newVegas:ElvisFacialAnim_Joint
	{
		OFFSET 1.000000 -95.330101 -8.825800
		CHANNELS 3 Xrotation Yrotation Zrotation
		End Site
		{
			OFFSET 0.000000 35.315800 0.000000
		}
	}
}
MOTION
Frames: 4
Frame Time: 0.033333
-1.750902 79.490631 3.164426 9.553460 -14.108932 0.310167 0.000001 -0.000000 -0.000000 -57.263756 10.171902 7.001619 105.017539 5.977610 -2.224040 -10.775703 6.802125 10.640426 0.000005 0.000001 0.000001 0.000001 0.000000 0.000000 -27.938809 2.678515 11.711690 65.621650 -4.456462 -4.255662 -47.697359 -17.505309 -2.174989 -0.000000 0.000000 0.000000 0.000002 -0.000000 0.000000 8.969315 -3.200952 1.972400 3.368006 -0.992437 -0.077684 3.359739 -1.009906 -0.086558 1.699089 1.454436 0.542144 1.699076 1.454442 0.542141 0.000000 -0.000001 0.000000 1.699090 1.454449 0.542140 1.699173 1.454432 0.542140 0.000000 0.000001 0.000000 0.000000 -0.000001 0.000000 1.771548 -10.853852 12.730783 -90.088652 -24.713689 -65.480785 -0.000001 -30.282197 -0.000018 -131.351163 11.231205 15.005932 4.709217 9.560375 3.111991 19.473187 -1.474879 7.636906 0.000002 -0.000003 0.000002 -0.212819 3.933712 -36.747128 2.942132 5.078919 -60.144624 -0.000000 -0.000002 0.000001 0.405918 5.507040 -52.453162 3.387140 5.308601 -65.057484 -0.000005 -0.000001 0.000001 -0.074374 5.736774 -61.061413 4.055053 5.569486 -72.094921 0.000002 -0.000004 0.000000 -6.565548 4.545161 -72.425229 3.299614 5.267192 -64.107814 -0.000000 -0.000003 -0.000000 0.000001 0.000001 0.000001 0.000001 0.000001 0.000001 0.000000 0.000001 0.000001 0.000002 -0.000001 -0.000001 0.000001 -0.000001 0.000000 0.000002 -0.000001 -0.000001 -0.000000 -0.000002 -0.000001 0.686948 4.969848 1.828414 -59.429824 34.223264 86.887157 0.000005 106.835907 -0.000004 -28.144122 -36.812985 -29.809770 8.377137 -4.904138 11.021991 21.620194 -18.183910 -18.379218 0.000000 0.000001 0.000001 -0.920028 1.683577 12.434967 0.748106 -2.533484 32.898303 -0.000002 -0.000000 -0.000001 3.413070 -7.186250 51.650256 6.296789 -4.359583 110.634687 0.000001 0.000000 0.000001 -3.349039 -2.600417 57.010561 5.440852 -4.590875 99.698174 -0.000001 0.000001 0.000003 -3.996431 -3.303977 64.593850 4.058821 -4.618644 82.610523 -0.000001 -0.000000 -0.000001 -0.000000 -0.000000 0.000001 -0.000002 0.000003 -0.000002 -0.000000 -0.000000 -0.000001 0.000003 0.000002 -0.000000 0.000003 0.000003 0.000001 0.000003 0.000002 -0.000000 0.000003 0.000003 0.000000 0.000002 0.000002 -0.000001 0.000002 0.000002 -0.000001 0.000002 0.000002 -0.000001 0.000002 0.000002 -0.000001 0.000002 0.000002 -0.000001 0.000002 0.000002 -0.000001 0.000002 0.000002 -0.000001 0.000001 0.000002 -0.000001 0.000001 -0.000000 -0.000000 
-1.635091 80.124214 12.590067 9.932718 -13.349742 1.787258 0.000001 0.000000 -0.000000 -66.448779 10.117038 5.282341 100.862326 5.253624 -1.547440 -17.960597 8.622031 9.615746 0.000002 0.000000 0.000001 0.000004 -0.000000 -0.000000 -16.338069 2.453526 9.572767 58.620181 -5.315719 -5.782902 -49.983444 -18.680506 -4.156932 0.000000 0.000000 -0.000000 -0.000001 0.000000 -0.000001 8.657510 -2.787107 1.500775 3.657787 -0.931553 -0.126042 3.650990 -0.951535 -0.126921 1.452339 1.420434 0.579224 1.452331 1.420439 0.579223 0.000000 -0.000000 0.000001 1.452329 1.420447 0.579218 1.452407 1.420448 0.579218 0.000001 -0.000000 0.000000 0.000000 -0.000000 0.000001 0.281569 -10.919352 11.627026 -87.378740 -25.376630 -65.195501 0.000015 -33.043472 0.000011 -132.597877 10.001210 14.855930 4.709226 9.560362 3.111990 19.473194 -1.474881 7.636913 -0.000002 -0.000001 0.000000 -0.212820 3.933707 -36.747142 2.942143 5.078911 -60.144610 0.000001 -0.000001 -0.000000 0.405916 5.507024 -52.453169 3.387141 5.308604 -65.057484 -0.000003 -0.000001 -0.000001 -0.074385 5.736750 -61.061434 4.055047 5.569507 -72.094907 0.000004 -0.000004 -0.000002 -6.565557 4.545152 -72.425243 3.299621 5.267184 -64.107814 -0.000000 -0.000003 0.000001 0.000003 -0.000001 -0.000000 0.000003 -0.000001 -0.000000 0.000002 -0.000001 0.000000 -0.000001 -0.000001 -0.000000 -0.000001 -0.000001 -0.000002 -0.000001 -0.000001 -0.000000 -0.000003 -0.000001 -0.000001 -0.758425 3.561984 1.775054 -49.476521 34.221608 81.345217 -0.000071 115.645990 0.000069 -30.975150 -31.326799 -35.970337 19.886579 19.069473 40.721434 6.254915 -28.960986 -13.843783 -0.000001 0.000002 -0.000000 -0.997139 -1.237583 26.253400 0.748326 -2.533784 32.902951 -0.000000 -0.000000 0.000004 3.567186 -7.186854 54.315348 6.539740 -4.260440 113.866569 -0.000000 -0.000000 0.000001 -3.007104 -2.393045 53.731971 5.290379 -4.614001 97.823117 -0.000002 0.000001 -0.000002 -3.509062 -2.739436 58.743848 3.629190 -4.542516 77.234557 -0.000003 0.000002 -0.000002 0.000000 0.000000 -0.000001 -0.000000 0.000000 -0.000003 0.000000 0.000000 -0.000000 0.000000 0.000000 -0.000000 0.000000 0.000001 0.000001 0.000000 0.000000 -0.000000 0.000000 0.000001 0.000000 0.000003 -0.000000 -0.000000 0.000003 -0.000000 -0.000000 0.000003 -0.000000 -0.000000 0.000003 -0.000000 -0.000000 0.000003 -0.000000 -0.000000 0.000003 -0.000000 -0.000000 0.000003 -0.000000 -0.000000 0.000000 -0.000000 -0.000000 0.000001 0.000000 -0.000000 
-1.484695 81.260010 22.361547 10.302040 -11.834663 2.759713 -0.000001 -0.000000 0.000000 -70.744340 10.238427 1.423814 88.503672 6.209777 -0.574003 -21.559854 12.451764 11.066159 0.000001 0.000000 -0.000002 -0.000000 -0.000000 -0.000000 -3.932142 0.413190 6.350073 46.886018 -6.072076 -7.686514 -45.361865 -19.356041 -1.081986 0.000000 -0.000001 0.000000 -0.000001 0.000000 -0.000002 8.394863 -2.280725 1.257903 3.995371 -0.863085 -0.179746 3.990453 -0.883352 -0.171347 1.124182 1.401336 0.618197 1.124183 1.401338 0.618196 -0.000001 0.000000 0.000000 1.124180 1.401334 0.618197 1.124056 1.401341 0.618199 -0.000002 -0.000001 0.000000 -0.000001 0.000000 0.000000 -1.310772 -10.570347 10.493884 -83.047649 -24.485310 -65.120198 -0.000033 -38.407868 -0.000032 -131.281741 6.087660 14.038604 4.709219 9.560380 3.111992 19.473189 -1.474884 7.636908 0.000001 0.000000 -0.000001 -0.212815 3.933727 -36.747135 2.942143 5.078908 -60.144590 0.000003 -0.000000 0.000000 0.405918 5.507033 -52.453172 3.387139 5.308605 -65.057470 0.000001 -0.000001 0.000000 -0.074372 5.736772 -61.061420 4.055039 5.569492 -72.094921 0.000001 0.000001 0.000001 -6.565551 4.545170 -72.425222 3.299618 5.267180 -64.107848 0.000001 -0.000003 0.000001 -0.000001 0.000000 0.000001 -0.000001 0.000000 0.000001 -0.000002 0.000000 0.000001 0.000002 -0.000001 -0.000000 0.000002 -0.000001 0.000000 0.000002 -0.000001 -0.000000 -0.000000 -0.000001 -0.000000 -2.277228 2.338459 1.821573 -38.634490 36.334045 76.540036 0.000216 114.786547 -0.000213 -29.703881 -23.854880 -48.076742 6.803245 27.697127 46.024502 7.465558 -26.799458 -10.999186 -0.000000 -0.000004 -0.000001 -0.949991 2.204820 11.619259 0.748719 -2.534406 32.912069 -0.000001 -0.000000 0.000004 0.446731 -4.184210 27.168684 6.284241 -4.364264 110.469690 0.000000 0.000000 0.000002 -0.439428 -2.529665 28.063246 4.746532 -4.656293 91.100974 0.000000 -0.000001 0.000002 -1.692842 -1.809575 39.298204 3.264491 -4.444497 72.582276 -0.000000 -0.000004 0.000001 0.000002 0.000003 -0.000001 -0.000001 0.000001 0.000000 0.000001 0.000003 -0.000001 -0.000001 -0.000002 0.000001 -0.000001 -0.000001 0.000002 -0.000001 -0.000002 0.000001 -0.000001 -0.000001 0.000002 -0.000000 0.000000 0.000000 -0.000000 0.000000 0.000000 -0.000000 0.000000 0.000000 -0.000000 0.000000 0.000000 -0.000000 0.000000 0.000000 -0.000000 0.000000 0.000000 -0.000000 0.000000 0.000000 0.000001 -0.000001 0.000000 -0.000001 -0.000000 0.000000 
-1.402240 82.563316 33.039898 10.519652 -9.838534 3.254587 0.000000 -0.000000 0.000000 -71.314750 6.163927 0.755417 64.501233 3.997217 0.861080 -20.107857 9.074010 0.491375 -0.000002 -0.000000 0.000000 -0.000000 -0.000000 -0.000000 7.700405 -3.212795 2.472588 32.682462 -8.109087 -9.377839 -31.969626 -17.814887 8.194795 0.000000 -0.000001 0.000001 -0.000000 0.000002 -0.000002 8.183858 -1.660662 1.091063 4.383113 -0.781303 -0.261618 4.381090 -0.799659 -0.243142 0.700173 1.294309 0.698231 0.700174 1.294309 0.698235 0.000000 0.000001 -0.000001 0.700233 1.294327 0.698228 0.700078 1.294288 0.698237 -0.000001 -0.000000 -0.000000 0.000000 0.000001 -0.000000 -2.892892 -9.981628 9.981907 -77.492724 -22.112765 -65.206102 0.000006 -45.679315 0.000004 -128.332793 -0.071642 13.914646 4.709225 9.560367 3.111993 19.473187 -1.474880 7.636906 -0.000002 -0.000002 -0.000001 -0.212823 3.933716 -36.747128 2.942133 5.078919 -60.144604 0.000003 -0.000000 -0.000001 0.405916 5.507043 -52.453165 3.387130 5.308602 -65.057477 0.000000 -0.000002 0.000000 -0.074381 5.736767 -61.061434 4.055049 5.569498 -72.094914 0.000001 -0.000002 -0.000000 -6.565557 4.545173 -72.425236 3.299624 5.267191 -64.107835 -0.000003 -0.000003 -0.000000 0.000000 0.000000 0.000001 0.000000 0.000000 0.000001 -0.000000 0.000000 0.000001 -0.000005 -0.000001 -0.000000 -0.000005 -0.000001 -0.000001 -0.000005 -0.000001 -0.000000 -0.000007 -0.000002 -0.000000 -3.845202 1.361498 1.931288 -29.009002 38.418223 72.116634 0.000116 112.714370 -0.000119 -16.342356 -19.490331 -54.159831 9.718546 29.408158 27.802676 9.764391 -6.969931 -5.380537 -0.000000 -0.000001 0.000001 -0.462033 6.693558 3.593911 0.745563 -2.529528 32.840642 0.000000 0.000001 -0.000001 0.153975 2.502106 -1.092502 4.863511 -4.652589 92.542336 0.000001 -0.000000 -0.000001 0.085641 -6.931587 0.277611 3.466669 -4.502736 75.173444 0.000001 -0.000001 0.000002 -0.466088 -1.491476 18.467027 2.235572 -3.979264 58.641866 0.000001 -0.000000 -0.000001 0.000001 0.000001 -0.000003 0.000001 -0.000000 -0.000001 0.000001 0.000001 -0.000003 0.000000 0.000000 0.000001 0.000000 0.000001 0.000001 0.000000 0.000000 0.000001 0.000000 0.000001 0.000001 0.000000 -0.000000 -0.000000 0.000000 -0.000000 -0.000000 0.000000 -0.000000 -0.000000 0.000000 -0.000000 -0.000000 0.000000 -0.000000 -0.000000 0.000000 -0.000000 -0.000000 0.000000 -0.000000 -0.000000 0.000003 -0.000001 0.000000 0.000000 -0.000000 0.000000 
